<?xml version="1.0" standalone="no"?>
<!DOCTYPE svg PUBLIC "-//W3C//DTD SVG 20010904//EN"
 "http://www.w3.org/TR/2001/REC-SVG-20010904/DTD/svg10.dtd">
<svg version="1.0" xmlns="http://www.w3.org/2000/svg"
 width="512.000000pt" height="512.000000pt" viewBox="0 0 512.000000 512.000000"
 preserveAspectRatio="xMidYMid meet">

<g transform="translate(0.000000,512.000000) scale(0.100000,-0.100000)"
fill="#000000" stroke="none">
<path d="M2321 5110 c-748 -73 -1436 -476 -1865 -1094 -390 -561 -536 -1251
-411 -1932 84 -456 303 -894 615 -1236 423 -463 951 -740 1585 -830 119 -17
512 -16 635 1 752 104 1395 504 1812 1126 210 313 352 696 410 1100 17 118 17
512 0 630 -71 497 -262 944 -557 1300 -418 505 -975 821 -1625 920 -126 19
-468 27 -599 15z m640 -1000 c795 -162 1218 -1022 858 -1742 -21 -42 -59 -109
-85 -148 -25 -40 -55 -97 -65 -127 -34 -95 -52 -253 -52 -463 -1 -197 9 -306
44 -477 25 -123 10 -161 -62 -165 -19 -1 -330 -1 -691 0 l-657 2 -25 23 c-24
20 -27 35 -42 162 -9 77 -20 146 -26 153 -8 9 -63 12 -210 12 -222 0 -268 8
-323 53 -71 58 -75 75 -75 400 0 223 -3 287 -12 287 -7 0 -83 7 -168 15 -146
13 -156 15 -178 40 -12 14 -22 36 -22 48 0 13 78 149 174 302 l174 280 -10
100 c-19 175 13 369 88 549 102 244 320 472 559 586 88 42 258 97 351 114 122
22 336 20 455 -4z"/>
<path d="M2576 3728 c-7 -13 -21 -55 -31 -94 -16 -69 -18 -72 -55 -84 -38 -12
-41 -12 -108 29 -37 22 -75 41 -83 41 -19 0 -229 -211 -229 -230 0 -7 19 -45
41 -83 40 -67 41 -71 29 -108 -12 -36 -15 -38 -84 -54 -121 -29 -116 -21 -116
-193 0 -81 4 -153 9 -161 5 -7 46 -23 92 -35 80 -20 84 -22 97 -58 14 -37 14
-39 -27 -107 -22 -38 -41 -78 -41 -88 0 -22 209 -222 233 -223 9 0 47 18 83
40 63 38 68 40 101 28 41 -15 45 -23 63 -103 21 -101 9 -95 190 -95 116 0 161
3 167 12 4 7 16 48 28 92 19 74 22 79 56 93 36 14 38 13 103 -26 36 -23 76
41 89 41 28 0 227 196 227 225 0 10 -18 50 -41 88 -40 67 -40 69 -26 105 14
35 19 38 93 57 44 11 85 24 92 28 13 9 18 302 4 324 -4 6 -36 18 -72 27 -94
24 -104 29 -118 69 -12 34 -11 38 28 101 22 37 40 74 40 84 0 20 -209 232
-228 232 -8 0 -45 -19 -83 -41 -68 -41 -70 -41 -107 -27 -36 13 -38 17 -59 98
-12 46 -28 87 -35 91 -7 5 -79 9 -160 9 -142 0 -148 -1 -162 -22z m296 -137
c9 -40 19 -75 22 -78 10 -10 121 -53 136 -53 8 0 44 18 80 40 l65 39 78 -78
79 -78 -41 -67 c-23 -36 -41 -72 -41 -79 0 -6 12 -40 26 -75 29 -67 20 -62
147 -93 l47 -11 0 -109 0 -108 -40 -11 c-22 -5 -57 -15 -79 -20 -46 -12 -50
-17 -81 -94 -26 -66 -29 -51 33 -156 l27 -46 -79 -78 -78 -78 -65 41 c-36 23
-69 41 -74 41 -10 0 -113 -42 -131 -53 -7 -4 -17 -26 -23 -47 -5 -22 -15 -58
-20 -80 l-11 -40 -108 0 -109 0 -11 48 c-32 127 -25 116 -99 145 -37 15 -71
27 -75 27 -3 0 -37 -18 -73 -41 l-67 -41 -78 79 -78 78 39 65 c22 36 40 72 40
80 0 8 -12 43 -26 77 l-26 61 -77 19 -76 19 -3 112 -3 111 28 6 c15 4 52 14
81 23 52 16 55 19 78 77 13 33 24 67 24 75 -1 8 -18 44 -40 80 l-40 65 77 77
77 77 40 -25 c89 -55 103 -59 144 -44 95 34 101 38 112 82 6 24 16 60 21 81
l10 38 112 -3 112 -3 17 -74z"/>
<path d="M2671 3359 c-81 -14 -173 -63 -231 -125 -229 -242 -94 -641 237 -697
273 -47 524 207 474 479 -42 228 -255 381 -480 343z m214 -100 c74 -35 147
-112 174 -184 30 -79 26 -207 -8 -273 -53 -103 -148 -173 -255 -190 -202 -32
-381 109 -394 311 -5 86 6 134 50 206 40 66 85 104 164 137 78 33 192 30 269
-7z"/>
<path d="M2653 3156 c-54 -18 -100 -47 -141 -89 -35 -36 -39 -63 -10 -80 13
-9 25 -3 57 26 61 55 115 79 180 79 72 0 117 -19 176 -73 37 -35 50 -41 63
-32 30 18 25 47 -15 87 -76 78 -213 114 -310 82z"/>
<path d="M2645 3031 c-54 -25 -98 -73 -93 -102 5 -36 34 -34 80 5 70 60 151
60 217 0 44 -39 66 -43 82 -13 16 30 -13 66 -81 102 -64 33 -144 36 -205 8z"/>
<path d="M2674 2920 c-50 -25 -73 -62 -54 -85 17 -21 40 -19 66 6 29 27 78 28
107 1 27 -26 50 -28 67 -7 20 24 -2 61 -49 85 -51 25 -85 25 -137 0z"/>
<path d="M2716 2804 c-9 -8 -16 -19 -16 -24 0 -5 7 -16 16 -24 8 -9 19 -16 24
-16 5 0 16 7 24 16 9 8 16 19 16 24 0 5 -7 16 -16 24 -8 9 -19 16 -24 16 -5 0
-16 -7 -24 -16z"/>
</g>
</svg>

