<?xml version="1.0" standalone="no"?>
<!DOCTYPE svg PUBLIC "-//W3C//DTD SVG 20010904//EN"
 "http://www.w3.org/TR/2001/REC-SVG-20010904/DTD/svg10.dtd">
<svg version="1.0" xmlns="http://www.w3.org/2000/svg"
 width="512.000000pt" height="512.000000pt" viewBox="0 0 512.000000 512.000000"
 preserveAspectRatio="xMidYMid meet">

<g transform="translate(0.000000,512.000000) scale(0.100000,-0.100000)"
fill="#000000" stroke="none">
<path d="M2067 5109 c-519 -55 -976 -270 -1329 -626 -159 -160 -261 -295 -373
-492 -41 -74 -145 -292 -145 -306 0 -3 204 -5 453 -5 l452 0 145 146 c80 80
157 152 172 160 21 11 73 14 225 14 l199 0 29 61 c77 162 234 259 420 259 241
-1 432 -166 467 -406 28 -191 -69 -381 -240 -472 -148 -79 -336 -76 -472 6
-61 37 -140 124 -172 189 l-31 63 -146 0 -146 0 -135 -135 c-74 -75 -151 -146
-170 -158 -35 -22 -40 -22 -590 -27 l-555 -5 -17 -95 c-9 -52 -20 -128 -23
-167 l-7 -73 1378 0 1379 0 28 60 c77 165 277 276 461 255 253 -30 426 -220
426 -470 -1 -265 -203 -465 -470 -465 -183 0 -330 89 -415 252 l-36 68 -1376
0 -1375 0 7 -77 c6 -73 30 -216 41 -255 5 -17 40 -18 555 -18 458 0 555 -2
577 -14 15 -8 92 -80 172 -160 l145 -146 146 0 145 0 30 62 c134 284 528 346
755 119 127 -128 169 -312 109 -487 -48 -138 -147 -237 -288 -285 -226 -78
-465 16 -573 225 l-34 66 -188 0 c-146 0 -196 3 -224 15 -22 9 -97 75 -183
160 l-146 145 -452 0 c-249 0 -452 -2 -452 -5 0 -3 22 -55 50 -116 103 -231
252 -449 436 -638 l111 -115 -128 -510 c-71 -281 -129 -532 -129 -557 0 -56
30 -106 80 -131 33 -17 107 -18 1114 -18 1076 0 1078 0 1116 21 20 11 44 33
53 48 8 14 45 143 81 285 36 142 68 261 71 264 3 4 236 -26 516 -66 l509 -73
45 20 c26 12 52 33 64 51 10 18 85 296 165 619 81 322 151 602 156 622 9 32
31 49 243 192 187 125 238 163 251 190 19 41 21 99 5 130 -6 12 -114 159 -240
327 l-228 306 -11 119 c-52 571 -266 1044 -644 1418 -214 211 -492 388 -781
495 -339 126 -720 177 -1058 141z"/>
<path d="M2229 3998 c-101 -58 -106 -221 -10 -285 94 -63 216 -24 256 82 30
78 -6 174 -78 208 -49 24 -124 21 -168 -5z"/>
<path d="M3222 3047 c-49 -15 -99 -77 -107 -132 -12 -79 30 -158 98 -184 115
-44 237 34 237 152 0 123 -109 202 -228 164z"/>
<path d="M2250 2079 c-62 -25 -100 -85 -100 -159 0 -61 18 -100 64 -135 90
-69 217 -31 261 77 32 80 -6 172 -86 214 -32 16 -102 18 -139 3z"/>
</g>
</svg>
